Coordinates
version=1
nRows=13
nColumns=22
inDegrees=yes

Units are S.I. units (second, meters, Newtons, ...)
If the header above contains a line with 'inDegrees', this indicates whether rotational values are in degrees (yes) or radians (no).

endheader
time	pelvis_tilt	pelvis_list	pelvis_rotation	pelvis_tx	pelvis_ty	pelvis_tz	hip_flexion_r	hip_adduction_r	hip_rotation_r	knee_angle_r	ankle_angle_r	subtalar_angle_r	hip_flexion_l	hip_adduction_l	hip_rotation_l	knee_angle_l	ankle_angle_l	subtalar_angle_l	lumbar_extension	lumbar_bending	lumbar_rotation
      0.01000000	      1.52767219	     -3.11021891	     -8.53331239	     -1.28103449	      0.93907011	     -0.10405973	     -0.83343236	      1.45971421	      1.45662556	     -7.38844795	      3.77874255	      4.68140106	     -1.52616044	     -5.06246546	    -13.81846326	    -11.28044404	      8.09029155	      3.93091813	     -3.92845427	     -0.81280608	      2.09768092
      0.02000000	      1.53113604	     -3.11188863	     -8.53176953	     -1.28103653	      0.93907203	     -0.10400563	     -0.83583769	      1.46415690	      1.45679973	     -7.39074539	      3.78027657	      4.68360586	     -1.52966213	     -5.06670134	    -13.81962598	    -11.27947190	      8.09083402	      3.93127720	     -3.92332475	     -0.81936045	      2.09471872
      0.03000000	      1.53500257	     -3.11387102	     -8.52919522	     -1.28103751	      0.93907475	     -0.10394707	     -0.83771387	      1.46864549	      1.45677939	     -7.39581058	      3.78355580	      4.68658634	     -1.53449715	     -5.07226786	    -13.82174137	    -11.27729443	      8.09201374	      3.93191224	     -3.91707096	     -0.82672217	      2.09090677
      0.04000000	      1.55347753	     -3.12132376	     -8.52990433	     -1.28104299	      0.93908600	     -0.10389429	     -0.83755545	      1.47566184	      1.43133003	     -7.43748716	      3.85365836	      4.75137791	     -1.56371994	     -5.07927367	    -13.83509290	    -11.26067855	      8.10979096	      3.95133162	     -3.93138896	     -0.82611614	      2.08231308
      0.05000000	      1.55777796	     -3.12215880	     -8.52465915	     -1.28104292	      0.93908833	     -0.10383717	     -0.83854711	      1.47896928	      1.43316730	     -7.44428623	      3.85466904	      4.75418397	     -1.56877671	     -5.08402338	    -13.83684528	    -11.25977854	      8.11045524	      3.95201332	     -3.92349077	     -0.83492296	      2.07990869
      0.06000000	      1.56584749	     -3.12443696	     -8.52637161	     -1.28106734	      0.93909232	     -0.10377825	     -0.82215503	      1.48315166	      1.43193431	     -7.49101748	      3.88664712	      4.78584026	     -1.58845150	     -5.08696426	    -13.85356355	    -11.23610300	      8.12140979	      3.96072771	     -3.92716248	     -0.83984098	      2.05914421
      0.07000000	      1.57091977	     -3.12561900	     -8.52174230	     -1.28106320	      0.93909517	     -0.10371603	     -0.82396279	      1.48639935	      1.43164485	     -7.49906871	      3.89157206	      4.79047142	     -1.59425310	     -5.09273515	    -13.85432244	    -11.23714595	      8.12213971	      3.96179133	     -3.91766255	     -0.84967713	      2.06166620
      0.08000000	      1.58458329	     -3.12065244	     -8.53458037	     -1.28109466	      0.93909377	     -0.10365313	     -0.79729452	      1.47938300	      1.40167994	     -7.57521480	      4.00164374	      4.90119045	     -1.61840959	     -5.08635638	    -13.87805128	    -11.21839163	      8.13765464	      3.99120669	     -3.92681553	     -0.86580745	      2.08978027
      0.09000000	      1.58861290	     -3.12205776	     -8.52848066	     -1.28109644	      0.93909948	     -0.10359344	     -0.79779894	      1.48261732	      1.40412844	     -7.58368749	      4.00254853	      4.90499112	     -1.62376884	     -5.09246384	    -13.88052126	    -11.21605263	      8.13800457	      3.99191992	     -3.91770972	     -0.87467606	      2.08637838
      0.10000000	      1.59344139	     -3.12333561	     -8.53538710	     -1.28111673	      0.93909620	     -0.10353618	     -0.76832809	      1.48314481	      1.37966152	     -7.65130404	      4.07332536	      5.00850931	     -1.64215645	     -5.09428896	    -13.89860574	    -11.18990029	      8.14420434	      4.01905732	     -3.91467216	     -0.88040078	      2.09002905
      0.11000000	      1.59723239	     -3.12471814	     -8.52858564	     -1.28111901	      0.93910293	     -0.10348310	     -0.76960592	      1.48578442	      1.38171643	     -7.65809551	      4.07426451	      5.01191890	     -1.64634680	     -5.10001755	    -13.90116896	    -11.18809453	      8.14485654	      4.01990513	     -3.90553645	     -0.88976308	      2.08654783
      0.12000000	      1.60073189	     -3.12562220	     -8.52358592	     -1.28111693	      0.93910369	     -0.10344929	     -0.75602711	      1.48597674	      1.37520395	     -7.69564639	      4.10676701	      5.05044087	     -1.65997782	     -5.10211289	    -13.91798236	    -11.16559482	      8.15359280	      4.03234770	     -3.89696791	     -0.89331221	      2.05428901
      0.13000000	      1.60980931	     -3.11542087	     -8.50787086	     -1.28111526	      0.93910115	     -0.10343896	     -0.74613112	      1.47246621	      1.34930221	     -7.73753074	      4.18288008	      5.13598286	     -1.66393297	     -5.09314649	    -13.90963662	    -11.16792446	      8.16284244	      4.06312082	     -3.89329275	     -0.91400230	      2.05129105
